<?xml version="1.0" ?>
<!-- Uploaded to: SVG Repo, www.svgrepo.com, Generator: SVG Repo Mixer Tools -->
<svg width="800px" height="800px" viewBox="0 0 64 64" id="Layer_1" version="1.1" xml:space="preserve" xmlns="http://www.w3.org/2000/svg" xmlns:xlink="http://www.w3.org/1999/xlink">
<style type="text/css">
	.st0{fill:#1379C2;}
	.st1{fill:#358DCC;}
	.st2{fill-rule:evenodd;clip-rule:evenodd;fill:#3FB754;}
	.st3{fill-rule:evenodd;clip-rule:evenodd;fill:#CCCCCC;}
	.st4{fill:#5D5E61;}
	.st5{fill:#924F34;}
	.st6{fill:#E6E6E6;}
	.st7{fill:#0F8C7E;}
	.st8{fill-rule:evenodd;clip-rule:evenodd;fill:#E6E6E6;}
	.st9{fill-rule:evenodd;clip-rule:evenodd;fill:#E6E6E6;stroke:#000000;stroke-width:0.4799;stroke-miterlimit:2.6131;}
	.st10{fill:#823B1F;}
	.st11{fill:#FFC810;}
	.st12{fill-rule:evenodd;clip-rule:evenodd;fill:#924F34;}
	.st13{fill:#E04538;}
	.st14{fill-rule:evenodd;clip-rule:evenodd;}
	.st15{fill-rule:evenodd;clip-rule:evenodd;fill:#FFC810;}
	.st16{fill-rule:evenodd;clip-rule:evenodd;fill:#E4E7E9;}
	.st17{fill:#3FB754;}
	.st18{fill-rule:evenodd;clip-rule:evenodd;fill:#5D5E61;}
	.st19{fill:#C92B1C;}
	.st20{fill:#666666;}
	.st21{fill:#FFD95E;}
	.st22{fill:#4D4D4D;}
	.st23{fill-rule:evenodd;clip-rule:evenodd;fill:#0F8C7E;}
	.st24{fill:#999999;}
	.st25{fill:#CCCCCC;}
	.st26{fill-rule:evenodd;clip-rule:evenodd;fill:#358DCC;}
	.st27{fill-rule:evenodd;clip-rule:evenodd;fill:#823B1F;}
</style>
<g>
<path class="st19" d="M32,1c10.7,0,22.6,7,22.6,18.7c0,9.1-7.2,20.6-15.5,24.6v5.8H25v-5.8c-8.3-4-15.5-15.5-15.5-24.6   C9.4,7.9,21.3,1,32,1L32,1z M34.5,45.7c-1.7,0.3-3.4,0.3-5.1,0v4.4h5.1V45.7L34.5,45.7z M39.9,6.9L40,7c1.7,3.3,2.7,7.8,2.7,12.7   c0,6-1.4,13.8-3.9,19.6c5.9-3.8,11.2-12.7,11.2-19.6C50.1,13.6,45.3,9,39.9,6.9L39.9,6.9z M25.2,39.2c-2.5-5.7-3.9-13.6-3.9-19.6   c0-4.9,1-9.4,2.7-12.7l0.1-0.1C18.7,9,13.9,13.6,13.9,19.7C13.9,26.5,19.3,35.5,25.2,39.2L25.2,39.2z M36,9.1   c-1.1-2.2-2.6-3.6-4-3.6c-1.4,0-2.8,1.4-4,3.6c-1.4,2.7-2.2,6.4-2.2,10.6c0,1,2.2,21.8,6.2,21.8h0c4,0,6.2-20.8,6.2-21.8   C38.2,15.5,37.4,11.7,36,9.1L36,9.1z"/>
<path d="M32,0c11.2,0,23.5,7.4,23.5,19.7c0,9.4-7.3,20.9-15.5,25.2v5.2v1h-1H25h-1v-1v-5.2C15.7,40.5,8.5,29,8.5,19.7   C8.5,7.4,20.8,0,32,0L32,0z M32,1.9c-10.1,0-21.6,6.5-21.6,17.7c0,9.3,7.2,20,15.5,24v5.5h2.6v-4.5c2.8,0.5,4.3,0.5,7,0v4.5h2.6   v-5.5c8.3-4,15.5-14.7,15.5-24C53.6,8.5,42.1,1.9,32,1.9L32,1.9z M33.6,46.8c-1.1,0.1-2.1,0.1-3.2,0v2.3h3.2V46.8L33.6,46.8z    M39.1,7.5L39.1,7.5l-0.1-0.1L40.3,6c5.8,2.2,10.8,7.2,10.8,13.7c0,7.3-5.6,16.5-11.7,20.4L38,38.9C41.6,30.5,43.7,16.4,39.1,7.5   L39.1,7.5z M41.8,8.9c3.2,8.4,1.8,19.3-0.9,27.4c4.2-3.9,8.1-10.8,8.1-16.6C49.1,14.9,45.9,11.1,41.8,8.9L41.8,8.9z M23,36.3   c-2.7-8.2-4-19-0.9-27.5c-4,2.2-7.3,6-7.3,10.8C14.9,25.5,18.9,32.4,23,36.3L23,36.3z M26,38.9l-1.4,1.2   c-6-3.9-11.7-13.1-11.7-20.4c0-6.5,5-11.4,10.8-13.7l1.2,1.3l-0.1,0.1l0,0C20.3,16.4,22.4,30.5,26,38.9L26,38.9z M35.1,9.5   c-0.5-1-1.8-3.1-3.1-3.1c-1.4,0-2.6,2.1-3.1,3.1c-3.7,7.2-1.5,18.5,0.6,25.9c0.8,2.9,1.7,5.1,2.5,5.1h0v0c0.8,0,1.7-2.2,2.5-5.1   C36.7,28,38.8,16.7,35.1,9.5L35.1,9.5z M36.8,8.6c4,7.8,1.8,19.3-0.4,27.3c-1,3.7-2.5,6.5-4.4,6.5v0h0c-1.9,0-3.4-2.8-4.4-6.5   c-2.3-8-4.4-19.6-0.4-27.3c0.9-1.8,2.6-4.1,4.8-4.1C34.3,4.5,35.9,6.8,36.8,8.6L36.8,8.6z"/>
<path class="st10" d="M39,50.1c1.1,0.1,2,1.1,2,2.2v8.4c0,1.2-1,2.3-2.2,2.3H25.2c-1.2,0-2.2-1-2.2-2.3v-8.4c0-1.2,0.9-2.1,2-2.2   H39L39,50.1z"/>
<path d="M39.1,49.1c1.7,0.1,2.9,1.5,2.9,3.2v8.4c0,1.8-1.4,3.2-3.2,3.2H25.2c-1.8,0-3.2-1.4-3.2-3.2v-8.4c0-1.7,1.3-3.1,2.9-3.2   l0.1,0L39.1,49.1L39.1,49.1L39.1,49.1z M39,51.1H25c-0.6,0.1-1.1,0.6-1.1,1.3v8.4c0,0.1,0.4,0.9,0.4,0.9c0.2,0.2,0.6,0.4,0.9,0.4   h13.7c0.7,0,1.3-0.6,1.3-1.3v-8.4C40.1,51.7,39.7,51.2,39,51.1L39,51.1z"/>
<path class="st15" d="M25.2,39.2c-2.5-5.7-3.9-13.6-3.9-19.6c0-4.9,1-9.4,2.7-12.7l0.1-0.1C18.7,9,13.9,13.6,13.9,19.7   C13.9,26.5,19.3,35.5,25.2,39.2L25.2,39.2z"/>
<path d="M23,36.3c-0.6-2-1.2-4.1-1.6-6.2c-0.7-3.6-1.1-7.3-1.1-10.4c0-2.5,0.3-4.8,0.7-7h0c0.3-1.3,0.7-2.6,1.1-3.8   c-1.8,1-3.5,2.3-4.8,3.9c-1.5,1.9-2.5,4.2-2.5,6.9c0,3.2,1.2,6.9,3.2,10.3C19.4,32.3,21.2,34.6,23,36.3L23,36.3z M23.3,29.7   c0.6,3.3,1.6,6.4,2.7,9.1l-1.4,1.2c-3.1-2-6.1-5.4-8.2-9.1c-2.1-3.7-3.5-7.7-3.5-11.2c0-3.1,1.1-5.8,2.9-8.1c2-2.5,4.9-4.4,7.9-5.6   l1.2,1.3l-0.1,0.1l0,0c-0.8,1.6-1.5,3.5-1.9,5.6v0c-0.4,2-0.7,4.3-0.7,6.6C22.3,22.7,22.6,26.2,23.3,29.7L23.3,29.7z"/>
<path class="st15" d="M25.8,19.7c0,1,2.2,21.8,6.2,21.8c4,0,6.2-20.8,6.2-21.8c0-4.2-0.9-7.9-2.2-10.6c-1.1-2.2-2.6-3.6-4-3.6   c-1.4,0-2.8,1.4-4,3.6C26.6,11.7,25.8,15.5,25.8,19.7L25.8,19.7z"/>
<path d="M26.8,19.7c0,0.7,0.9,9.6,2.7,15.7c0.8,2.9,1.7,5.1,2.6,5.1v0c0.8,0,1.7-2.2,2.5-5.1c1.7-6.1,2.7-15.1,2.7-15.7   c0-2-0.2-3.9-0.6-5.6c-0.4-1.7-0.9-3.3-1.6-4.6c-0.5-1-1.1-1.8-1.7-2.4v0c-0.5-0.4-1-0.7-1.4-0.7c-0.4,0-0.9,0.2-1.4,0.7v0   c-0.6,0.5-1.2,1.4-1.7,2.4c-0.7,1.3-1.2,2.8-1.6,4.6C27,15.8,26.8,17.7,26.8,19.7L26.8,19.7z M27.6,35.9   c-1.8-6.3-2.8-15.6-2.8-16.3c0-2.1,0.2-4.1,0.6-6c0.4-1.9,1-3.6,1.7-5.1c0.6-1.2,1.4-2.2,2.1-2.9l0,0c0.8-0.8,1.8-1.2,2.7-1.2   c0.9,0,1.9,0.4,2.7,1.2l0,0c0.8,0.7,1.5,1.7,2.1,2.9c0.7,1.4,1.3,3.2,1.7,5.1c0.4,1.8,0.6,3.9,0.6,6c0,0.7-1,10-2.8,16.3   c-1,3.7-2.5,6.5-4.4,6.5v0C30.1,42.4,28.6,39.6,27.6,35.9L27.6,35.9z"/>
<path class="st15" d="M42.7,19.7c0,6-1.4,13.8-3.9,19.6c5.9-3.8,11.2-12.7,11.2-19.6c0-6.1-4.8-10.7-10.2-12.8L40,7   C41.7,10.3,42.7,14.8,42.7,19.7L42.7,19.7z"/>
<path d="M43.7,19.7c0,3.2-0.4,6.8-1.1,10.4c-0.4,2.1-1,4.2-1.6,6.2c1.9-1.8,3.6-4,4.9-6.4c1.9-3.4,3.2-7.1,3.2-10.3   c0-2.6-1-4.9-2.5-6.9c-1.3-1.6-2.9-2.9-4.8-3.9c0.4,1.2,0.8,2.5,1.1,3.8h0C43.4,14.8,43.7,17.2,43.7,19.7L43.7,19.7z M40.7,29.7   c0.7-3.5,1-7,1-10.1c0-2.3-0.2-4.6-0.7-6.6v0c-0.5-2.1-1.1-4-1.9-5.6l0,0l-0.1-0.1L40.3,6c3,1.2,5.9,3.1,7.9,5.6   c1.8,2.3,2.9,5,2.9,8.1c0,3.5-1.4,7.6-3.4,11.2c-2.2,3.8-5.1,7.1-8.2,9.1L38,38.9C39.1,36.1,40.1,33,40.7,29.7L40.7,29.7z"/>
</g>
</svg>